<svg width="670" height="255" viewBox="0 0 670 255" fill="none" xmlns="http://www.w3.org/2000/svg">
<path d="M367.667 43.4V18.6667H353.667V30.8L335 14L288.333 56H302.333V93.3333H325.667V65.3333H344.333V93.3333H367.667V56H381.667L367.667 43.4ZM325.667 46.6667C325.667 41.5333 329.867 37.3333 335 37.3333C340.133 37.3333 344.333 41.5333 344.333 46.6667H325.667Z" fill="#88B04B"/>
<path d="M82.164 169.656C82.164 167.992 82.772 166.616 83.988 165.528C85.204 164.376 86.74 163.8 88.596 163.8H114.228C121.14 163.8 126.484 165.624 130.26 169.272C134.1 172.92 136.02 178.04 136.02 184.632C136.02 188.408 135.252 191.608 133.716 194.232C132.18 196.792 129.844 198.84 126.708 200.376V200.664C132.34 203.16 135.156 207.896 135.156 214.872V222.36C135.156 225.432 134.068 227.8 131.892 229.464C129.716 231.064 126.516 231.864 122.292 231.864V215.448C122.292 212.056 121.62 209.56 120.276 207.96C118.932 206.36 116.884 205.56 114.132 205.56H94.836V222.36C94.836 225.496 93.748 227.864 91.572 229.464C89.46 231.064 86.324 231.864 82.164 231.864V169.656ZM113.556 194.616C116.628 194.616 118.996 193.752 120.66 192.024C122.324 190.232 123.156 187.736 123.156 184.536C123.156 178.008 119.956 174.744 113.556 174.744H94.836V194.616H113.556ZM164.873 231.864C160.905 231.864 157.289 231.096 154.025 229.56C150.761 227.96 148.169 225.816 146.249 223.128C144.329 220.376 143.369 217.304 143.369 213.912V201.144C143.369 197.56 144.361 194.328 146.345 191.448C148.329 188.568 150.953 186.296 154.217 184.632C157.545 182.968 161.129 182.136 164.969 182.136C168.745 182.136 172.201 182.936 175.337 184.536C178.537 186.072 181.065 188.248 182.921 191.064C184.777 193.816 185.705 196.984 185.705 200.568V205.944C185.705 207.352 185.161 208.536 184.073 209.496C183.049 210.456 181.737 210.936 180.137 210.936H154.985V213.048C154.985 215.8 155.817 218.04 157.481 219.768C159.145 221.496 161.641 222.36 164.969 222.36C168.169 222.36 170.537 221.656 172.073 220.248C173.673 218.84 174.473 217.016 174.473 214.776C175.625 214.648 176.425 214.584 176.873 214.584C179.241 214.584 181.097 215.128 182.441 216.216C183.785 217.24 184.457 218.712 184.457 220.632C184.457 222.488 183.593 224.28 181.865 226.008C180.137 227.736 177.769 229.144 174.761 230.232C171.753 231.32 168.457 231.864 164.873 231.864ZM174.857 202.392V200.568C174.857 197.88 173.929 195.704 172.073 194.04C170.217 192.376 167.817 191.544 164.873 191.544C161.929 191.544 159.529 192.376 157.673 194.04C155.881 195.64 154.985 197.816 154.985 200.568V202.392H174.857ZM194.945 191.352C194.945 188.408 195.873 186.136 197.729 184.536C199.649 182.936 202.529 182.136 206.369 182.136V187.896C205.601 188.792 204.833 189.816 204.065 190.968L204.641 191.352C206.561 188.472 209.025 186.232 212.033 184.632C215.041 182.968 218.369 182.136 222.017 182.136C225.281 182.136 228.161 182.872 230.657 184.344C233.153 185.816 235.073 187.832 236.417 190.392C237.825 192.952 238.529 195.832 238.529 199.032V224.568C238.529 227.128 237.537 228.984 235.553 230.136C233.569 231.288 230.561 231.864 226.529 231.864V200.76C226.529 198.328 225.793 196.344 224.321 194.808C222.913 193.272 220.833 192.504 218.081 192.504C214.817 192.504 212.129 193.528 210.017 195.576C207.905 197.56 206.849 200.056 206.849 203.064V224.568C206.849 227.128 205.889 228.984 203.969 230.136C202.049 231.288 199.041 231.864 194.945 231.864V191.352ZM270.293 231.864C265.109 231.864 261.269 230.36 258.773 227.352C256.277 224.344 255.029 220.472 255.029 215.736V191.928H245.141C245.141 188.92 245.717 186.68 246.869 185.208C248.021 183.736 249.557 183 251.477 183H255.221V175.032C255.221 172.408 256.181 170.552 258.101 169.464C260.021 168.312 262.933 167.736 266.837 167.736V183H279.605C279.605 186.2 278.997 188.504 277.781 189.912C276.565 191.256 274.613 191.928 271.925 191.928H267.029V215.256C267.029 217.496 267.445 219.096 268.277 220.056C269.173 221.016 270.677 221.496 272.789 221.496C275.029 221.496 277.269 220.888 279.509 219.672C280.149 220.248 280.661 220.984 281.045 221.88C281.429 222.712 281.621 223.576 281.621 224.472C281.621 226.392 280.629 228.12 278.645 229.656C276.661 231.128 273.877 231.864 270.293 231.864Z" fill="white"/>
<path d="M332.164 172.44C332.164 169.368 333.252 167.032 335.428 165.432C337.604 163.768 340.804 162.936 345.028 162.936V191.544H373.732V172.44C373.732 169.304 374.82 166.936 376.996 165.336C379.236 163.736 382.436 162.936 386.596 162.936V222.36C386.596 225.432 385.476 227.8 383.236 229.464C381.06 231.064 377.892 231.864 373.732 231.864V202.68H345.028V222.36C345.028 225.432 343.908 227.8 341.668 229.464C339.492 231.064 336.324 231.864 332.164 231.864V172.44ZM415.509 231.864C411.349 231.864 407.573 231.128 404.181 229.656C400.853 228.12 398.229 226.008 396.309 223.32C394.389 220.632 393.429 217.592 393.429 214.2V200.664C393.429 197.208 394.357 194.072 396.213 191.256C398.133 188.44 400.757 186.232 404.085 184.632C407.413 182.968 411.221 182.136 415.509 182.136C419.797 182.136 423.605 182.968 426.933 184.632C430.325 186.232 432.949 188.44 434.805 191.256C436.725 194.072 437.685 197.208 437.685 200.664V214.2C437.685 217.592 436.693 220.632 434.709 223.32C432.789 226.008 430.133 228.12 426.741 229.656C423.413 231.128 419.669 231.864 415.509 231.864ZM415.509 221.592C418.709 221.592 421.205 220.856 422.997 219.384C424.853 217.912 425.781 215.928 425.781 213.432V201.24C425.781 198.616 424.853 196.504 422.997 194.904C421.205 193.24 418.709 192.408 415.509 192.408C412.373 192.408 409.877 193.24 408.021 194.904C406.165 196.504 405.237 198.616 405.237 201.24V213.432C405.237 215.928 406.165 217.912 408.021 219.384C409.877 220.856 412.373 221.592 415.509 221.592ZM487.286 222.552C487.286 225.56 486.326 227.864 484.406 229.464C482.55 231.064 479.702 231.864 475.862 231.864V226.104C476.694 225.144 477.462 224.088 478.166 222.936L477.59 222.552C473.494 228.76 467.99 231.864 461.078 231.864C457.814 231.864 454.87 231.128 452.246 229.656C449.686 228.12 447.638 226.008 446.102 223.32C444.63 220.632 443.894 217.592 443.894 214.2V189.432C443.894 186.808 444.854 184.952 446.774 183.864C448.758 182.712 451.766 182.136 455.798 182.136V213.336C455.798 215.832 456.566 217.816 458.102 219.288C459.638 220.76 461.846 221.496 464.726 221.496C467.926 221.496 470.486 220.504 472.406 218.52C474.39 216.472 475.382 213.944 475.382 210.936V189.432C475.382 186.808 476.342 184.952 478.262 183.864C480.182 182.712 483.19 182.136 487.286 182.136V222.552ZM518.058 231.864C511.914 231.864 506.954 230.776 503.178 228.6C499.466 226.36 497.578 223.384 497.514 219.672C497.514 218.072 498.154 216.728 499.434 215.64C500.778 214.552 502.89 213.976 505.77 213.912C506.346 216.728 507.69 218.904 509.802 220.44C511.914 221.912 514.474 222.648 517.482 222.648C520.746 222.648 523.306 222.232 525.162 221.4C527.018 220.568 527.946 219.32 527.946 217.656C527.946 216.12 527.178 214.84 525.642 213.816C524.17 212.792 521.226 211.768 516.81 210.744C512.01 209.592 508.266 208.44 505.578 207.288C502.954 206.136 501.002 204.664 499.722 202.872C498.442 201.08 497.802 198.712 497.802 195.768C497.802 191.672 499.53 188.376 502.986 185.88C506.442 183.384 511.178 182.136 517.194 182.136C523.018 182.136 527.85 183.192 531.69 185.304C535.53 187.352 537.45 190.104 537.45 193.56C537.45 195.288 536.81 196.568 535.53 197.4C534.25 198.232 532.138 198.68 529.194 198.744C528.554 196.184 527.338 194.264 525.546 192.984C523.754 191.704 521.226 191.064 517.962 191.064C515.53 191.064 513.418 191.48 511.626 192.312C509.898 193.144 509.034 194.232 509.034 195.576C509.034 196.984 509.77 198.072 511.242 198.84C512.714 199.608 515.274 200.376 518.922 201.144C526.09 202.68 531.274 204.728 534.474 207.288C537.738 209.848 539.37 213.336 539.37 217.752C539.37 222.04 537.45 225.464 533.61 228.024C529.834 230.584 524.65 231.864 518.058 231.864ZM568.905 231.864C564.937 231.864 561.321 231.096 558.057 229.56C554.793 227.96 552.201 225.816 550.281 223.128C548.361 220.376 547.401 217.304 547.401 213.912V201.144C547.401 197.56 548.393 194.328 550.377 191.448C552.361 188.568 554.985 186.296 558.249 184.632C561.577 182.968 565.161 182.136 569.001 182.136C572.777 182.136 576.233 182.936 579.369 184.536C582.569 186.072 585.097 188.248 586.953 191.064C588.809 193.816 589.737 196.984 589.737 200.568V205.944C589.737 207.352 589.193 208.536 588.105 209.496C587.081 210.456 585.769 210.936 584.169 210.936H559.017V213.048C559.017 215.8 559.849 218.04 561.513 219.768C563.177 221.496 565.673 222.36 569.001 222.36C572.201 222.36 574.569 221.656 576.105 220.248C577.705 218.84 578.505 217.016 578.505 214.776C579.657 214.648 580.457 214.584 580.905 214.584C583.273 214.584 585.129 215.128 586.473 216.216C587.817 217.24 588.489 218.712 588.489 220.632C588.489 222.488 587.625 224.28 585.897 226.008C584.169 227.736 581.801 229.144 578.793 230.232C575.785 231.32 572.489 231.864 568.905 231.864ZM578.889 202.392V200.568C578.889 197.88 577.961 195.704 576.105 194.04C574.249 192.376 571.849 191.544 568.905 191.544C565.961 191.544 563.561 192.376 561.705 194.04C559.913 195.64 559.017 197.816 559.017 200.568V202.392H578.889Z" fill="#88B04B"/>
</svg>
